<svg xmlns="http://www.w3.org/2000/svg" viewBox="0 0 512 512">
  <defs>
    <linearGradient id="bgGrad" x1="0%" y1="0%" x2="100%" y2="100%">
      <stop offset="0%" style="stop-color:#f59e0b"/>
      <stop offset="100%" style="stop-color:#d97706"/>
    </linearGradient>
    <linearGradient id="houseGrad" x1="0%" y1="0%" x2="0%" y2="100%">
      <stop offset="0%" style="stop-color:#ffffff"/>
      <stop offset="100%" style="stop-color:#fef3c7"/>
    </linearGradient>
  </defs>
  
  <!-- Background circle -->
  <circle cx="256" cy="256" r="240" fill="url(#bgGrad)"/>
  
  <!-- House shape -->
  <path d="M256 100 L380 200 L380 380 L132 380 L132 200 Z" fill="url(#houseGrad)" stroke="#92400e" stroke-width="8"/>
  
  <!-- Roof -->
  <path d="M256 80 L400 210 L112 210 Z" fill="#92400e"/>
  
  <!-- Door -->
  <rect x="220" y="280" width="72" height="100" rx="4" fill="#92400e"/>
  <circle cx="278" cy="335" r="8" fill="#fbbf24"/>
  
  <!-- Window left -->
  <rect x="152" y="240" width="50" height="50" rx="4" fill="#7dd3fc" stroke="#92400e" stroke-width="4"/>
  <line x1="177" y1="240" x2="177" y2="290" stroke="#92400e" stroke-width="3"/>
  <line x1="152" y1="265" x2="202" y2="265" stroke="#92400e" stroke-width="3"/>
  
  <!-- Window right -->
  <rect x="310" y="240" width="50" height="50" rx="4" fill="#7dd3fc" stroke="#92400e" stroke-width="4"/>
  <line x1="335" y1="240" x2="335" y2="290" stroke="#92400e" stroke-width="3"/>
  <line x1="310" y1="265" x2="360" y2="265" stroke="#92400e" stroke-width="3"/>
  
  <!-- Star decoration -->
  <path d="M256 130 L262 148 L282 148 L266 160 L272 178 L256 166 L240 178 L246 160 L230 148 L250 148 Z" fill="#fbbf24"/>
  
  <!-- Checkmark badge -->
  <circle cx="390" cy="390" r="60" fill="#22c55e" stroke="#fff" stroke-width="8"/>
  <path d="M360 390 L380 410 L420 360" fill="none" stroke="#fff" stroke-width="12" stroke-linecap="round" stroke-linejoin="round"/>
</svg>
